<?xml version="1.0" encoding="UTF-8" standalone="no"?>
<!DOCTYPE svg PUBLIC "-//W3C//DTD SVG 1.1//EN" "http://www.w3.org/Graphics/SVG/1.1/DTD/svg11.dtd">
<svg xmlns="http://www.w3.org/2000/svg" xmlns:xlink="http://www.w3.org/1999/xlink" version="1.1" preserveAspectRatio="xMidYMid meet" viewBox="12.099448031747704 12.277607115371577 375.3309444615897 60.63779135403479" width="371.33" height="56.64">
  <defs>
    <path d="M45.08 28.05C42.02 30.42 37.79 33.71 35.66 35.36C31.86 38.31 31.5 38.68 32.03 39.13C32.2 39.26 35.77 39.3 45.18 39.27C46.04 39.27 50.35 39.25 58.1 39.23C58.13 38.93 58.14 38.76 58.15 38.73C58.2 38.23 57.97 37.7 55.51 32.54C54.97 31.42 54.53 30.47 54.53 30.43C54.53 30.38 53.95 29.12 52.2 25.42C51.52 23.98 51.34 23.72 51.01 23.73C50.78 23.73 48.55 25.36 45.08 28.05M300.27 29.81C297.83 30.42 298.04 34.29 300.52 34.5C301.57 34.59 301.89 34.49 302.53 33.86C303.79 32.59 303.23 30.33 301.54 29.86C300.9 29.68 300.8 29.68 300.27 29.81M338.94 29.86C336.61 30.56 336.92 34.3 339.33 34.5C340.39 34.59 340.71 34.49 341.34 33.86C343.1 32.09 341.33 29.14 338.94 29.86M201.94 30.13C201.88 30.19 201.82 31.97 201.82 34.08C201.82 38.8 201.81 38.85 200.48 37.94C196.31 35.08 190.41 37.04 188.95 41.76C186.65 49.17 193.91 55.15 200.36 51.17C201.53 50.45 201.59 50.45 201.77 51.21C201.93 51.88 202.28 52.05 203.09 51.84C203.11 51.84 203.25 51.8 203.49 51.74L203.44 40.93L203.4 30.11C203 30.08 202.78 30.06 202.73 30.06C202.36 30.03 202.01 30.06 201.94 30.13M95.87 31.71C95.6 31.98 95.58 51.11 95.84 51.6C96.06 52 99.47 52.09 99.79 51.7C99.91 51.55 99.99 50.07 100.02 47.43C100.02 47.16 100.04 45.8 100.06 43.37C101.95 43.32 103 43.29 103.22 43.28C106.95 43.17 106.45 43.44 106.45 41.56C106.45 39.61 106.68 39.74 103.05 39.64C102.85 39.64 101.85 39.61 100.06 39.56C100.04 38.33 100.02 37.65 100.02 37.51C99.95 34.78 99.62 35 103.96 35C107.57 35 107.57 35 107.67 34.63C107.8 34.14 107.8 32.37 107.67 31.89C107.67 31.86 107.63 31.74 107.57 31.52C104.12 31.52 102.2 31.52 101.82 31.52C97.57 31.52 96.01 31.57 95.87 31.71M240.64 31.84C240.55 32.01 240.47 32.69 240.47 33.34C240.47 35.23 240.36 35.16 243.53 35.16C247.19 35.16 246.78 34.11 246.78 43.48C246.78 52.75 246.56 51.92 248.9 51.92C251.32 51.92 251.09 52.82 251.09 43.54C251.09 37.56 251.14 35.51 251.29 35.36C251.43 35.22 252.32 35.16 254.27 35.16C257.51 35.16 257.39 35.24 257.39 33.34C257.39 31.32 258.28 31.52 248.93 31.52C241.08 31.52 240.81 31.53 240.64 31.84M308.16 33.82C308.06 34 307.98 34.74 307.98 35.46C307.98 37.04 307.91 37.12 306.48 37.19C306.41 37.19 306.05 37.21 305.41 37.24C305.38 38.12 305.36 38.62 305.36 38.71C305.3 40.47 305.32 40.5 306.77 40.62C306.85 40.63 307.22 40.66 307.9 40.72C307.96 42.61 307.99 43.66 308 43.87C308.18 49.59 308.74 51 311.18 51.82C312.1 52.12 314.69 52.18 315.65 51.91C315.69 51.9 315.9 51.84 316.27 51.74L316.27 50.19L316.27 48.65C315.4 48.66 314.92 48.66 314.82 48.66C312.1 48.7 311.8 48.22 311.8 43.97C311.8 40.33 311.6 40.64 313.93 40.64C316.39 40.63 316.3 40.71 316.24 38.8C316.24 38.7 316.22 38.17 316.19 37.24C314.98 37.19 314.3 37.16 314.17 37.15C311.74 37.05 311.82 37.12 311.76 35.16C311.76 35.06 311.74 34.53 311.71 33.59C310.7 33.56 310.14 33.54 310.02 33.54C308.48 33.5 308.31 33.52 308.16 33.82M214.18 36.68C206.24 37.56 205.48 49.69 213.22 52.08C216.38 53.06 221.73 51.44 221.73 49.51C221.73 48.57 220.54 48.37 219.76 49.18C216.8 52.22 211.21 50.67 209.96 46.46C209.22 43.99 208.9 44.12 215.61 44.12C222.13 44.12 221.65 44.27 221.52 42.3C221.26 38.5 218.3 36.23 214.18 36.68M263.86 36.68C261.09 36.95 259.07 38.48 257.93 41.17C257.25 42.77 257.27 46.17 257.96 47.83C259.98 52.68 267.23 54.08 271.12 50.36C272.03 49.5 272.02 49.45 270.76 48.45C269.51 47.45 269.33 47.43 268.28 48.17C265.89 49.88 262.01 48.78 261.45 46.25C261.24 45.29 261.28 45.28 266.44 45.28C272.13 45.28 271.72 45.46 271.62 43.06C271.42 38.57 268.56 36.22 263.86 36.68M362.88 36.68C354.73 37.51 354.06 49.8 362.04 52.15C364.87 52.98 369.22 51.91 370.53 50.07C370.99 49.42 370.34 48.58 368.59 47.56C368.5 47.5 367.99 47.75 367.47 48.1C364.96 49.8 361.69 49.07 360.65 46.56C360.11 45.27 360.07 45.28 365.52 45.28C371.2 45.28 370.73 45.49 370.65 43.01C370.51 38.6 367.57 36.21 362.88 36.68M114.71 36.99C111.47 38 109.27 41.05 109.27 44.54C109.27 54.19 123.66 55.38 125.3 45.87C126.34 39.85 120.68 35.11 114.71 36.99M163.91 37.24L162.79 37.82C162.58 37.62 162.46 37.51 162.43 37.49C162.01 37.09 159.26 36.99 158.9 37.35C158.61 37.64 158.61 51.43 158.9 51.72C159.02 51.84 159.65 51.92 160.61 51.92C162.66 51.92 162.51 52.3 162.51 46.94C162.51 46.63 162.51 45.1 162.51 42.35C162.88 41.88 163.09 41.62 163.13 41.56C164.57 39.72 166.68 39.67 167.73 41.47C168.05 42.01 168.08 42.39 168.15 46.94C168.16 47.27 168.19 48.9 168.24 51.83L170.06 51.83L171.89 51.83L171.97 47L172.05 42.16C172.36 41.78 172.53 41.57 172.56 41.52C174.01 39.73 176.15 39.71 177.19 41.48C177.5 42.01 177.53 42.4 177.58 46.77C177.64 52.31 177.49 51.92 179.54 51.92C181.6 51.92 181.48 52.29 181.37 46.03C181.29 41.41 181.26 40.98 180.91 39.98C179.7 36.51 175.28 35.48 172.3 37.96C171.89 38.31 171.47 38.64 171.36 38.7C171.25 38.77 170.78 38.48 170.26 38.03C168.48 36.48 165.96 36.17 163.91 37.24M228.17 36.82C226.11 37.44 224.98 39.25 225.38 41.26C225.74 43.04 226.36 43.6 230.19 45.58C231.89 46.46 232.32 46.85 232.52 47.7C232.8 48.94 231.93 50.43 230.81 50.66C229.03 51.03 227.98 50.78 226.61 49.66C225.33 48.62 223.96 49.37 224.97 50.56C227.41 53.46 233.3 52.79 234.19 49.51C234.95 46.72 234 45.46 229.39 43.14C227.33 42.1 226.71 41.02 227.34 39.58C228.13 37.81 230.71 37.68 232.58 39.32C233.17 39.84 233.23 39.86 233.63 39.63C235.82 38.39 231.08 35.94 228.17 36.82M323.98 36.9C316.61 39.23 316.53 49.82 323.86 52.08C329.28 53.76 334.52 50.05 334.52 44.54C334.52 39.14 329.17 35.26 323.98 36.9M376.87 36.96C374.59 37.75 373.45 39.66 373.86 41.98C374.17 43.72 375.29 44.8 377.98 45.92C379.78 46.68 380.25 47 380.38 47.59C380.82 49.57 378.31 49.92 376.25 48.16C375.39 47.43 375.3 47.44 374.15 48.54C372.99 49.65 372.96 49.86 373.82 50.65C377.72 54.17 384.04 52.35 384.03 47.71C384.02 45.36 383.43 44.59 380.63 43.27C377.51 41.81 377.29 41.61 377.54 40.58C377.85 39.34 379.62 39.38 381.09 40.66C381.85 41.32 382.05 41.27 383.28 40.16C383.35 40.1 383.71 39.78 384.35 39.2C384.18 38.93 384.08 38.78 384.06 38.75C382.96 37.06 379.25 36.14 376.87 36.96M293.84 37.01C293.22 37.07 292.65 37.26 292.23 37.55C291.4 38.09 291.17 38.09 290.82 37.56C290.56 37.16 290.5 37.14 288.94 37.19C288.83 37.19 288.3 37.21 287.33 37.24L287.33 44.54L287.33 51.83C288.26 51.86 288.78 51.88 288.88 51.88C291.06 51.95 290.9 52.33 290.9 47.09C290.9 46.8 290.9 45.31 290.9 42.64C291.25 42.3 291.45 42.11 291.49 42.07C292.34 41.24 293.11 40.93 294.62 40.82C294.71 40.81 295.16 40.78 295.96 40.72C295.98 39.74 296 39.2 296 39.09C296.07 36.92 295.92 36.78 293.84 37.01M352.76 37C352.2 37.06 351.58 37.27 351.15 37.54C350.29 38.08 349.91 38.1 349.7 37.61C349.54 37.26 349.43 37.24 347.87 37.24C347.76 37.24 347.21 37.24 346.21 37.24L346.21 44.54L346.21 51.83C347.14 51.86 347.66 51.88 347.76 51.88C349.94 51.95 349.78 52.33 349.78 47.11C349.78 46.81 349.78 45.33 349.78 42.67C350.23 42.26 350.48 42.03 350.53 41.98C351.47 41.11 351.87 40.96 353.51 40.83C353.6 40.82 354.04 40.78 354.84 40.72C354.87 39.74 354.88 39.2 354.89 39.09C354.95 36.93 354.8 36.78 352.76 37M134.38 37.31C134 37.48 133.64 37.7 133.58 37.8C133.37 38.15 132.72 38 132.52 37.57C132.28 37.04 129.14 36.91 128.94 37.42C128.89 37.56 128.84 40.84 128.84 44.71C128.84 45.18 128.84 47.53 128.84 51.75C129.07 51.8 129.19 51.83 129.22 51.84C129.42 51.89 130.22 51.91 131 51.88C131.09 51.88 131.56 51.86 132.41 51.83C132.46 49.13 132.49 47.63 132.49 47.33C132.58 42.2 132.55 42.33 134.05 41.39C134.73 40.97 135.02 40.9 136.14 40.87C136.86 40.85 137.52 40.79 137.62 40.73C137.87 40.57 137.86 37.45 137.6 37.19C137.28 36.87 135.18 36.94 134.38 37.31M280.54 37.48C279.38 38.09 279.17 38.1 278.92 37.56C278.73 37.15 278.71 37.14 277.06 37.19C276.95 37.19 276.39 37.21 275.39 37.24L275.34 44.49L275.3 51.74C275.53 51.8 275.65 51.83 275.68 51.84C275.88 51.89 276.69 51.91 277.46 51.88C277.55 51.88 278.02 51.86 278.87 51.83L278.95 47.24L279.04 42.65C279.34 42.34 279.5 42.16 279.53 42.13C280.36 41.26 281.2 40.92 282.73 40.84C282.82 40.83 283.28 40.81 284.11 40.76L284.06 38.92L284.01 37.07C283.26 37.04 282.84 37.03 282.76 37.02C281.63 36.98 281.4 37.03 280.54 37.48M140.99 37.35C140.73 37.61 140.7 44.82 140.96 46.72C141.54 51.12 145.64 53.49 150.24 52.09C153.77 51.02 154.72 48.75 154.72 41.29C154.72 36.87 154.85 37.13 152.64 37.19C152.53 37.19 151.98 37.21 150.99 37.24C150.93 40.02 150.9 41.57 150.89 41.88C150.8 46.24 150.77 46.57 150.43 47.23C149.29 49.43 146.23 49.42 145.05 47.22C144.71 46.57 144.68 46.27 144.6 41.88C144.6 41.57 144.57 40.02 144.52 37.24C143.52 37.21 142.97 37.19 142.85 37.19C141.7 37.16 141.13 37.21 140.99 37.35M299.13 37.41C298.89 38.02 299.01 51.54 299.26 51.74C299.41 51.86 300.04 51.91 301.04 51.88C301.14 51.88 301.66 51.86 302.59 51.83L302.59 44.54L302.59 37.24C301.58 37.21 301.02 37.19 300.91 37.19C299.49 37.15 299.21 37.18 299.13 37.41M337.94 37.41C337.71 38.02 337.83 51.54 338.07 51.74C338.22 51.86 338.85 51.91 339.85 51.88C339.96 51.88 340.47 51.86 341.4 51.83L341.4 44.54L341.4 37.24C340.4 37.21 339.84 37.19 339.72 37.19C338.3 37.15 338.03 37.18 337.94 37.41M198.27 38.65C199.5 39.07 200.69 39.93 201.28 40.83C201.31 40.88 201.47 41.11 201.74 41.53L201.74 44.54L201.74 47.55C201.45 47.97 201.29 48.2 201.26 48.25C199.78 50.38 196.24 51.4 194.1 50.3C187.23 46.77 191.02 36.18 198.27 38.65M217.35 38.81C218.78 39.63 219.99 41.52 219.57 42.3C219.33 42.76 210.35 42.82 210.17 42.37C209.85 41.54 211.38 39.47 212.86 38.74C214.13 38.1 216.18 38.13 217.35 38.81M266.31 40.1C267.12 40.47 267.7 41.24 267.64 41.86C267.64 41.9 267.62 42.07 267.59 42.38C265.87 42.41 264.92 42.42 264.73 42.43C261.5 42.48 261.38 42.43 261.96 41.35C262.73 39.93 264.69 39.36 266.31 40.1M364.95 39.89C365.94 40.1 367.13 41.69 366.7 42.21C366.4 42.57 360.93 42.58 360.79 42.23C360.54 41.57 361.85 40.19 363 39.88C363.75 39.69 363.95 39.69 364.95 39.89M119.27 40.69C123.4 43.12 121.18 49.74 116.56 48.75C113.24 48.04 112.16 43.67 114.7 41.25C115.9 40.12 117.88 39.88 119.27 40.69M327.71 40.39C330.58 41.4 331.49 45.17 329.41 47.48C326.85 50.31 322.37 48.44 322.37 44.54C322.37 41.58 325.09 39.46 327.71 40.39" id="c10jXWMvsE"/>
    <path d="M42.82 13.43C42.21 13.68 38.87 21.59 39.02 22.43C39.07 22.73 39.22 24.15 39.35 25.6C39.64 28.96 40.03 29.59 41.27 28.74C41.97 28.26 49.96 21.7 50.18 21.43C50.48 21.05 50.43 20.49 50.03 19.6C48.72 16.72 47.18 13.65 46.95 13.48C46.63 13.24 43.39 13.2 42.82 13.43M49.86 23.77C49.17 24.3 44.67 27.78 37.61 33.26C35.74 34.71 33.6 36.37 32.85 36.94C31.16 38.26 30.82 39.23 31.91 39.65C32.8 39.99 57.93 39.85 58.35 39.5C58.9 39.06 58.82 38.47 57.93 36.57C57.5 35.66 56.44 33.39 55.57 31.52C51.24 22.2 51.48 22.53 49.86 23.77M52.2 25.42C53.95 29.12 54.53 30.38 54.53 30.43C54.53 30.47 54.97 31.42 55.51 32.54C57.97 37.7 58.2 38.23 58.15 38.73C58.14 38.76 58.13 38.93 58.1 39.23C50.35 39.25 46.04 39.27 45.18 39.27C35.77 39.3 32.2 39.26 32.03 39.13C31.5 38.68 31.86 38.31 35.66 35.36C37.79 33.71 42.02 30.42 45.08 28.05C48.55 25.36 50.78 23.73 51.01 23.73C51.34 23.72 51.52 23.98 52.2 25.42M13.62 25.05C13.14 25.24 13.01 25.71 13.15 26.76C13.34 28.12 12.59 27.41 23.23 36.29C26.33 38.88 26.93 39.31 27.4 39.31C28.01 39.31 36.16 33.28 36.73 32.4C37.19 31.7 36.84 31.35 32.25 28.01C31.96 27.8 30.53 26.76 27.96 24.88C23.76 24.89 21.43 24.89 20.97 24.89C17.12 24.9 13.82 24.97 13.62 25.05M299.69 29.82C297.24 31.16 298.1 34.74 300.87 34.74C304.2 34.74 304.39 29.86 301.07 29.57C300.49 29.52 300.11 29.59 299.69 29.82M338.5 29.81C336.05 31.08 336.92 34.74 339.68 34.74C343.01 34.74 343.2 29.86 339.88 29.57C339.32 29.53 338.91 29.6 338.5 29.81M201.82 30.02C201.51 30.34 201.49 30.58 201.49 34.16C201.49 38.39 201.51 38.32 200.49 37.64C194.28 33.52 186.71 39.45 188.62 46.93C189.91 51.95 195.88 54.27 200.3 51.47C201.2 50.9 201.49 50.88 201.49 51.41C201.49 52.41 203.48 52.35 203.69 51.34C203.94 50.13 203.77 30.28 203.5 29.97C203.19 29.58 202.23 29.61 201.82 30.02M301.54 29.86C303.23 30.33 303.79 32.59 302.53 33.86C301.89 34.49 301.57 34.59 300.52 34.5C298.04 34.29 297.83 30.42 300.27 29.81C300.8 29.68 300.9 29.68 301.54 29.86M340.35 29.86C342.05 30.33 342.61 32.59 341.34 33.86C340.71 34.49 340.39 34.59 339.33 34.5C336.92 34.3 336.61 30.56 338.94 29.86C339.58 29.67 339.66 29.67 340.35 29.86M203.44 40.93L203.49 51.74C203.25 51.8 203.11 51.84 203.09 51.84C202.28 52.05 201.93 51.88 201.77 51.21C201.59 50.45 201.53 50.45 200.36 51.17C193.91 55.15 186.65 49.17 188.95 41.76C190.41 37.04 196.31 35.08 200.48 37.94C201.81 38.85 201.82 38.8 201.82 34.08C201.82 29.84 201.79 29.99 202.73 30.06C202.78 30.06 203 30.08 203.4 30.11L203.44 40.93M95.79 31.36C95.42 31.58 95.33 51.52 95.7 51.88C95.99 52.18 99.71 52.16 99.96 51.86C100.08 51.72 100.16 50.24 100.18 47.59C100.19 47.32 100.2 45.97 100.23 43.54C102.1 43.49 103.14 43.46 103.35 43.46C106.99 43.36 106.78 43.48 106.78 41.47C106.78 39.45 106.99 39.57 103.35 39.48C103.14 39.47 102.1 39.44 100.23 39.39C100.2 38.21 100.19 37.55 100.18 37.42C100.12 34.97 99.78 35.17 104.05 35.17C106.54 35.17 107.6 35.11 107.74 34.96C108.06 34.65 108.01 31.77 107.68 31.44C107.37 31.13 96.32 31.05 95.79 31.36M240.58 31.49C240.27 31.83 240.18 34.71 240.47 35.16C240.6 35.37 241.17 35.42 243.49 35.47C245.46 35.5 246.39 35.58 246.48 35.71C246.55 35.82 246.61 39.46 246.61 43.8C246.61 49.71 246.66 51.73 246.81 51.88C247.1 52.18 250.82 52.16 251.07 51.86C251.19 51.71 251.26 49.2 251.29 43.61C251.3 43.07 251.31 40.4 251.34 35.58C253.11 35.53 254.09 35.5 254.29 35.5C256.66 35.43 257.27 35.37 257.4 35.16C257.67 34.72 257.59 31.74 257.3 31.44C256.86 31.01 240.97 31.05 240.58 31.49M107.67 31.89C107.8 32.37 107.8 34.14 107.67 34.63C107.57 35 107.57 35 103.96 35C99.62 35 99.95 34.78 100.02 37.51C100.02 37.65 100.04 38.33 100.06 39.56C101.85 39.61 102.85 39.64 103.05 39.64C106.68 39.74 106.45 39.61 106.45 41.56C106.45 43.44 106.95 43.17 103.22 43.28C103 43.29 101.95 43.32 100.06 43.37C100.04 45.8 100.02 47.16 100.02 47.43C99.99 50.07 99.91 51.55 99.79 51.7C99.47 52.09 96.06 52 95.84 51.6C95.58 51.11 95.6 31.98 95.87 31.71C96.01 31.57 97.57 31.52 101.82 31.52C102.2 31.52 104.12 31.52 107.57 31.52L107.67 31.89M257.22 31.84C257.31 32.01 257.39 32.69 257.39 33.34C257.39 35.24 257.51 35.16 254.27 35.16C252.32 35.16 251.43 35.22 251.29 35.36C251.14 35.51 251.09 37.56 251.09 43.54C251.09 52.82 251.32 51.92 248.9 51.92C246.56 51.92 246.78 52.75 246.78 43.48C246.78 34.11 247.19 35.16 243.53 35.16C240.36 35.16 240.47 35.23 240.47 33.34C240.47 31.32 239.58 31.52 248.93 31.52C256.79 31.52 257.05 31.53 257.22 31.84M308.31 33.32C307.91 33.43 307.9 33.49 307.85 35.01C307.8 36.86 307.7 36.99 306.3 36.99C305.07 36.99 304.94 37.2 305.02 39.09C305.09 40.73 305.15 40.8 306.59 40.8C307.87 40.8 307.81 40.66 307.81 44.08C307.81 50.55 309.42 52.69 314.03 52.36C316.44 52.19 316.6 52.04 316.6 50.04C316.61 48.35 316.54 48.28 314.96 48.39C312.36 48.57 312.08 48.18 311.99 44.27C311.91 40.63 311.8 40.8 314.17 40.8C315.19 40.8 316.13 40.73 316.27 40.65C316.56 40.46 316.69 38.7 316.49 37.74C316.48 37.69 316.43 37.47 316.34 37.07C315.13 37.02 314.45 36.99 314.31 36.99C311.9 36.89 311.97 36.95 311.96 34.95C311.96 33.54 311.95 33.49 311.54 33.34C311.06 33.15 308.95 33.15 308.31 33.32M311.76 35.16C311.82 37.12 311.74 37.05 314.17 37.15C314.3 37.16 314.98 37.19 316.19 37.24C316.22 38.17 316.24 38.7 316.24 38.8C316.3 40.71 316.39 40.63 313.93 40.64C311.6 40.64 311.8 40.33 311.8 43.97C311.8 48.22 312.1 48.7 314.82 48.66C314.92 48.66 315.4 48.66 316.27 48.65L316.27 50.19L316.27 51.74C315.9 51.84 315.69 51.9 315.65 51.91C314.69 52.18 312.1 52.12 311.18 51.82C308.74 51 308.18 49.59 308 43.87C307.99 43.66 307.96 42.61 307.9 40.72C307.22 40.66 306.85 40.63 306.77 40.62C305.32 40.5 305.3 40.47 305.36 38.71C305.36 38.62 305.38 38.12 305.41 37.24C306.05 37.21 306.41 37.19 306.48 37.19C307.91 37.12 307.98 37.04 307.98 35.46C307.98 33.5 307.99 33.49 310.02 33.54C310.14 33.54 310.7 33.56 311.71 33.59L311.76 35.16M116.07 36.43C111.25 37.04 107.98 42.1 109.37 46.79C111.77 54.87 123.65 54.57 125.45 46.38C126.73 40.54 122.13 35.67 116.07 36.43M165.11 36.5C164.75 36.59 164.11 36.86 163.67 37.11C162.9 37.54 162.85 37.55 162.55 37.27C162.27 37.02 161.95 36.98 160.42 37.02C160.3 37.03 159.7 37.04 158.62 37.07C158.59 41.44 158.58 43.87 158.57 44.35C158.52 52.86 158.32 52.08 160.59 52.08C162.86 52.08 162.68 52.5 162.68 47.1C162.68 46.79 162.68 45.26 162.68 42.51C163.03 42.05 163.23 41.79 163.27 41.74C164.61 39.98 166.56 39.94 167.57 41.65C167.88 42.17 167.91 42.6 167.99 47.11C167.99 47.43 168.02 49.06 168.07 52L170.06 52L172.05 52L172.13 47.18L172.22 42.35C172.5 41.99 172.65 41.78 172.68 41.74C174.27 39.66 176.74 40.05 177.26 42.47C177.36 42.95 177.44 45.1 177.44 47.5C177.44 50.53 177.5 51.74 177.64 51.88C177.91 52.16 181.12 52.16 181.39 51.88C181.65 51.63 181.67 42.45 181.41 41.07C180.57 36.51 175.73 34.82 172.11 37.84C171.17 38.63 171.27 38.63 170.32 37.78C169.06 36.65 166.76 36.08 165.11 36.5M213.85 36.43C205.99 37.7 205.36 49.7 213.02 52.25C217.13 53.62 224.33 50.46 221.33 48.61C220.59 48.15 220.54 48.16 219.71 48.95C216.34 52.16 210.81 50.28 209.99 45.65C209.73 44.23 209.47 44.29 215.81 44.28C218.84 44.28 221.4 44.23 221.51 44.16C222.1 43.78 221.85 41.19 221.08 39.67C219.91 37.36 216.78 35.96 213.85 36.43M228.61 36.47C226.18 36.92 224.71 39.04 225.19 41.41C225.54 43.16 226.26 43.81 230.02 45.74C231.89 46.7 232.34 47.19 232.34 48.26C232.34 50.77 229.07 51.44 226.68 49.42C225.21 48.19 223.63 49.39 224.87 50.8C227.5 53.8 233.41 52.95 234.45 49.43C235.23 46.78 234.31 45.48 230.13 43.28C227.93 42.13 227.53 41.75 227.41 40.76C227.13 38.24 230.24 37.53 232.52 39.59C232.56 39.62 232.78 39.82 233.17 40.17C233.48 39.99 233.66 39.89 233.69 39.87C236 38.51 232.01 35.84 228.61 36.47M263.61 36.43C255.38 37.76 254.73 49.83 262.74 52.3C265.62 53.19 269.19 52.45 271.28 50.53C272.29 49.6 272.23 49.31 270.8 48.2C269.37 47.09 269.41 47.09 268.15 47.98C265.84 49.61 261.7 48.41 261.7 46.1C261.7 45.47 261.84 45.45 266.96 45.45C272.25 45.45 271.82 45.64 271.82 43.25C271.82 38.62 268.28 35.68 263.61 36.43M325.23 36.42C320.07 37.34 317.01 42.14 318.5 46.96C320.83 54.53 332.07 54.61 334.37 47.07C336.16 41.18 331.17 35.37 325.23 36.42M362.39 36.49C357.18 37.4 354.56 43.54 357.21 48.65C359.55 53.16 366.85 54.11 370.49 50.37C371.37 49.46 371.32 49.3 369.74 48.1C368.47 47.14 368.34 47.12 367.64 47.71C365.62 49.41 362.56 49.1 361.16 47.04C360.14 45.53 360.38 45.45 365.92 45.45C371.04 45.45 370.75 45.53 370.91 44.12C371.51 39.13 367.56 35.59 362.39 36.49M377.67 36.51C374.87 36.99 373.14 39.36 373.63 42.01C373.99 43.9 375.07 44.92 378.18 46.27C379.97 47.05 380.19 47.23 380.19 47.97C380.19 49.46 378.15 49.48 376.41 48C375.48 47.2 375.15 47.26 373.9 48.46C372.66 49.65 372.65 49.72 373.44 50.59C375.75 53.15 381.26 53.26 383.25 50.77C385.86 47.53 383.92 43.74 378.87 42.23C377.26 41.75 377.35 39.97 378.98 39.97C379.76 39.97 380.13 40.14 381.04 40.91C381.89 41.64 381.91 41.63 383.28 40.46C384.59 39.32 384.71 38.95 383.99 38.29C382.36 36.79 379.94 36.11 377.67 36.51M217.5 36.95C219.84 37.71 221.34 39.71 221.52 42.3C221.65 44.27 222.13 44.12 215.61 44.12C208.9 44.12 209.22 43.99 209.96 46.46C211.21 50.67 216.8 52.22 219.76 49.18C220.38 48.54 220.72 48.47 221.32 48.87C223 49.97 219.15 52.42 215.75 52.42C211.29 52.42 208.15 49.47 207.84 44.99C207.45 39.3 212.31 35.25 217.5 36.95M267.64 37.04C270.14 37.92 271.48 39.94 271.62 43.06C271.72 45.46 272.13 45.28 266.44 45.28C261.28 45.28 261.24 45.29 261.45 46.25C262.01 48.78 265.89 49.88 268.28 48.17C269.33 47.43 269.51 47.45 270.76 48.45C272.02 49.45 272.03 49.5 271.12 50.36C268 53.34 262.28 53.12 259.32 49.92C256.31 46.66 256.89 40.34 260.42 37.93C262.38 36.58 265.33 36.22 267.64 37.04M366.46 36.95C369.1 37.78 370.55 39.88 370.65 43.01C370.73 45.49 371.2 45.28 365.52 45.28C360.07 45.28 360.11 45.27 360.65 46.56C361.69 49.07 364.96 49.8 367.47 48.1C367.99 47.75 368.5 47.5 368.59 47.56C371.09 49.01 371.27 49.86 369.34 51.1C364.17 54.41 357.31 51.6 356.54 45.84C355.7 39.59 360.67 35.15 366.46 36.95M119.98 36.97C123.73 38.11 125.99 41.88 125.3 45.87C123.66 55.38 109.27 54.19 109.27 44.54C109.27 39.08 114.58 35.32 119.98 36.97M134.85 36.9C134.46 37.02 133.96 37.24 133.74 37.39C133.19 37.74 132.87 37.72 132.65 37.32C132.49 37 132.34 36.98 130.62 37.03C130.49 37.03 129.87 37.04 128.76 37.07L128.76 44.54L128.76 52C129.84 52.03 130.44 52.04 130.56 52.05C133.02 52.11 132.82 52.54 132.82 47.27C132.82 42.24 132.79 42.39 134.24 41.53C134.86 41.18 135.18 41.1 136.18 41.11C138.07 41.11 137.97 41.24 137.97 39.06C137.97 36.61 137.29 36.14 134.85 36.9M168.52 36.95C168.98 37.11 169.76 37.59 170.26 38.03C170.78 38.48 171.25 38.77 171.36 38.7C171.47 38.64 171.89 38.31 172.3 37.96C175.28 35.48 179.7 36.51 180.91 39.98C181.26 40.98 181.29 41.41 181.37 46.03C181.48 52.29 181.6 51.92 179.54 51.92C177.49 51.92 177.64 52.31 177.58 46.77C177.53 42.4 177.5 42.01 177.19 41.48C176.15 39.71 174.01 39.73 172.56 41.52C172.53 41.57 172.36 41.78 172.05 42.16L171.97 47L171.89 51.83L170.06 51.83L168.24 51.83C168.19 48.9 168.16 47.27 168.15 46.94C168.08 42.39 168.05 42.01 167.73 41.47C166.68 39.67 164.57 39.72 163.13 41.56C163.09 41.62 162.88 41.88 162.51 42.35C162.51 45.1 162.51 46.63 162.51 46.94C162.51 52.3 162.66 51.92 160.61 51.92C159.65 51.92 159.02 51.84 158.9 51.72C158.61 51.43 158.61 37.64 158.9 37.35C159.26 36.99 162.01 37.09 162.43 37.49C162.46 37.51 162.58 37.62 162.79 37.82C163.46 37.47 163.83 37.28 163.91 37.24C165.24 36.54 167.04 36.43 168.52 36.95M231.96 37.02C233.21 37.48 234.5 38.66 234.24 39.1C233.78 39.85 233.26 39.92 232.58 39.32C230.71 37.68 228.13 37.81 227.34 39.58C226.71 41.02 227.33 42.1 229.39 43.14C234 45.46 234.95 46.72 234.19 49.51C233.3 52.79 227.41 53.46 224.97 50.56C223.96 49.37 225.33 48.62 226.61 49.66C227.98 50.78 229.03 51.03 230.81 50.66C231.93 50.43 232.8 48.94 232.52 47.7C232.32 46.85 231.89 46.46 230.19 45.58C226.36 43.6 225.74 43.04 225.38 41.26C224.71 37.94 228.28 35.64 231.96 37.02M281.5 36.82C281.21 36.89 280.7 37.1 280.37 37.3C279.62 37.74 279.35 37.74 279.12 37.32C278.81 36.74 275.36 36.82 275.13 37.41C274.91 38.01 274.92 51.34 275.14 51.76C275.3 52.05 275.51 52.08 277.14 52.08C279.44 52.08 279.29 52.44 279.29 47.03C279.29 46.75 279.29 45.34 279.29 42.82C279.55 42.51 279.69 42.34 279.72 42.3C280.44 41.45 281.32 41.1 282.76 41.1C284.43 41.1 284.43 41.11 284.43 38.97C284.43 36.66 283.87 36.25 281.5 36.82M293.21 36.88C292.8 36.99 292.28 37.21 292.06 37.37C291.53 37.74 291.19 37.73 290.94 37.32C290.69 36.92 287.49 36.81 287.11 37.19C286.83 37.47 286.83 51.6 287.11 51.88C287.39 52.16 290.59 52.16 290.86 51.88C291.01 51.74 291.06 50.5 291.06 47.36C291.06 42.38 291.06 42.38 292.55 41.57C293.27 41.18 293.62 41.09 294.52 41.1C296.31 41.1 296.2 41.23 296.2 38.99C296.2 36.56 295.71 36.21 293.21 36.88M328.82 36.89C336.3 38.88 336.46 49.75 329.05 52.07C324.5 53.5 319.7 50.97 318.66 46.61C317.17 40.38 322.57 35.22 328.82 36.89M352.1 36.87C351.68 36.99 351.16 37.21 350.94 37.37C350.41 37.74 350.07 37.73 349.82 37.32C349.57 36.92 346.37 36.81 346 37.19C345.85 37.34 345.8 39.2 345.8 44.54C345.8 52.85 345.59 52.08 347.87 52.08C350.11 52.08 349.95 52.47 349.95 47.36C349.95 43.56 349.98 42.98 350.23 42.62C350.93 41.6 352.02 41.1 353.52 41.1C354.18 41.1 354.82 41.03 354.94 40.96C355.25 40.77 355.27 37.27 354.97 36.97C354.68 36.68 352.99 36.62 352.1 36.87M381.22 36.93C382.3 37.29 383.69 38.19 384.06 38.75C384.08 38.78 384.18 38.93 384.35 39.2C383.71 39.78 383.35 40.1 383.28 40.16C382.05 41.27 381.85 41.32 381.09 40.66C379.62 39.38 377.85 39.34 377.54 40.58C377.29 41.61 377.51 41.81 380.63 43.27C383.43 44.59 384.02 45.36 384.03 47.71C384.04 52.35 377.72 54.17 373.82 50.65C372.96 49.86 372.99 49.65 374.15 48.54C375.3 47.44 375.39 47.43 376.25 48.16C378.31 49.92 380.82 49.57 380.38 47.59C380.25 47 379.78 46.68 377.98 45.92C374.55 44.49 373.29 42.7 373.9 40.1C374.53 37.38 378.04 35.86 381.22 36.93M295.87 37.24C295.98 37.37 296.03 38.1 296 39.09C296 39.2 295.98 39.74 295.96 40.72C295.16 40.78 294.71 40.81 294.62 40.82C293.11 40.93 292.34 41.24 291.49 42.07C291.45 42.11 291.25 42.3 290.9 42.64C290.9 45.31 290.9 46.8 290.9 47.09C290.9 52.33 291.06 51.95 288.88 51.88C288.78 51.88 288.26 51.86 287.33 51.83L287.33 44.54L287.33 37.24C288.3 37.21 288.83 37.19 288.94 37.19C290.5 37.14 290.56 37.16 290.82 37.56C291.17 38.09 291.4 38.09 292.23 37.55C293.2 36.9 295.44 36.71 295.87 37.24M354.76 37.24C354.86 37.37 354.92 38.1 354.89 39.09C354.88 39.2 354.87 39.74 354.84 40.72C354.04 40.78 353.6 40.82 353.51 40.83C351.87 40.96 351.47 41.11 350.53 41.98C350.48 42.03 350.23 42.26 349.78 42.67C349.78 45.33 349.78 46.81 349.78 47.11C349.78 52.33 349.94 51.95 347.76 51.88C347.66 51.88 347.14 51.86 346.21 51.83L346.21 44.54L346.21 37.24C347.21 37.24 347.76 37.24 347.87 37.24C349.43 37.24 349.54 37.26 349.7 37.61C349.91 38.1 350.29 38.08 351.15 37.54C352.17 36.9 354.32 36.72 354.76 37.24M137.6 37.19C137.86 37.45 137.87 40.57 137.62 40.73C137.52 40.79 136.86 40.85 136.14 40.87C135.02 40.9 134.73 40.97 134.05 41.39C132.55 42.33 132.58 42.2 132.49 47.33C132.49 47.63 132.46 49.13 132.41 51.83C131.56 51.86 131.09 51.88 131 51.88C130.22 51.91 129.42 51.89 129.22 51.84C129.19 51.83 129.07 51.8 128.84 51.75C128.84 47.53 128.84 45.18 128.84 44.71C128.84 40.84 128.89 37.56 128.94 37.42C129.14 36.91 132.28 37.04 132.52 37.57C132.72 38 133.37 38.15 133.58 37.8C133.99 37.14 137.08 36.67 137.6 37.19M140.72 37.25C140.11 38.83 140.74 47.95 141.56 49.46C143.5 53.02 149.87 53.79 152.83 50.83C154.55 49.11 154.88 47.67 154.88 41.79C154.88 36.58 155.07 36.99 152.7 36.99C150.41 36.99 150.57 36.61 150.57 42C150.56 47.71 150.27 48.42 147.84 48.57C145.31 48.72 144.87 47.74 144.77 41.72C144.76 41.41 144.73 39.86 144.68 37.07C143.52 37.04 142.88 37.03 142.75 37.03C141.1 36.99 140.81 37.02 140.72 37.25M284.06 38.92L284.11 40.76C283.28 40.81 282.82 40.83 282.73 40.84C281.2 40.92 280.36 41.26 279.53 42.13C279.5 42.16 279.34 42.34 279.04 42.65L278.95 47.24L278.87 51.83C278.02 51.86 277.55 51.88 277.46 51.88C276.69 51.91 275.88 51.89 275.68 51.84C275.65 51.83 275.53 51.8 275.3 51.74L275.34 44.49L275.39 37.24C276.39 37.21 276.95 37.19 277.06 37.19C278.71 37.14 278.73 37.15 278.92 37.56C279.17 38.1 279.38 38.09 280.54 37.48C281.4 37.03 281.63 36.98 282.76 37.02C282.84 37.03 283.26 37.04 284.01 37.07L284.06 38.92M298.97 37.1C298.7 37.37 298.85 51.88 299.12 51.98C299.83 52.26 302.66 52.09 302.83 51.76C303.06 51.34 303.07 38.01 302.84 37.41C302.68 36.99 299.35 36.72 298.97 37.1M337.71 37.28C337.45 37.91 337.57 51.75 337.84 51.92C338.36 52.25 341.46 52.12 341.65 51.76C341.87 51.34 341.88 38.01 341.66 37.41C341.44 36.86 337.93 36.74 337.71 37.28M144.6 41.88C144.68 46.27 144.71 46.57 145.05 47.22C146.23 49.42 149.29 49.43 150.43 47.23C150.77 46.57 150.8 46.24 150.89 41.88C150.9 41.57 150.93 40.02 150.99 37.24C151.98 37.21 152.53 37.19 152.64 37.19C154.85 37.13 154.72 36.87 154.72 41.29C154.72 50.06 153.03 52.6 147.38 52.38C142.17 52.18 140.78 49.89 140.78 41.49C140.78 36.8 140.63 37.13 142.85 37.19C142.97 37.19 143.52 37.21 144.52 37.24L144.6 41.88M302.59 44.54L302.59 51.83C301.66 51.86 301.14 51.88 301.04 51.88C298.82 51.95 299.02 52.68 299.02 44.61C299.02 36.29 298.81 37.13 300.91 37.19C301.02 37.19 301.58 37.21 302.59 37.24L302.59 44.54M341.4 44.54L341.4 51.83C340.47 51.86 339.96 51.88 339.85 51.88C337.64 51.95 337.84 52.68 337.84 44.61C337.84 36.29 337.62 37.13 339.72 37.19C339.84 37.19 340.4 37.21 341.4 37.24L341.4 44.54M194.24 38.66C190.99 39.91 189.48 44.13 191.13 47.35C193.21 51.44 198.71 51.92 201.26 48.25C201.29 48.2 201.45 47.97 201.74 47.55L201.74 44.54L201.74 41.53C201.47 41.11 201.31 40.88 201.28 40.83C199.91 38.77 196.62 37.75 194.24 38.66M212.86 38.74C211.38 39.47 209.85 41.54 210.17 42.37C210.35 42.82 219.33 42.76 219.57 42.3C219.99 41.52 218.78 39.63 217.35 38.81C216.18 38.13 214.13 38.1 212.86 38.74M197.97 38.79C199.2 39.17 200.37 39.96 201 40.84C201.04 40.89 201.2 41.11 201.49 41.52C201.49 43.31 201.49 44.31 201.49 44.51C201.49 48.29 201.19 48.86 198.55 50.04C192.1 52.94 187.66 43.67 193.41 39.32C194.44 38.54 196.43 38.31 197.97 38.79M217.34 39.07C218.74 39.93 219.88 41.9 219.22 42.31C218.82 42.57 210.69 42.5 210.47 42.24C210.06 41.75 211.36 39.81 212.51 39.18C214.13 38.29 216.02 38.25 217.34 39.07M264.02 39.88C263.05 40.13 262.35 40.63 261.96 41.35C261.38 42.43 261.5 42.48 264.73 42.43C264.92 42.42 265.87 42.41 267.59 42.38C267.62 42.07 267.64 41.9 267.64 41.86C267.77 40.54 265.73 39.43 264.02 39.88M363 39.88C361.85 40.19 360.54 41.57 360.79 42.23C360.93 42.58 366.4 42.57 366.7 42.21C367.13 41.69 365.94 40.1 364.95 39.89C363.95 39.69 363.75 39.69 363 39.88M266.66 40.6C268.29 41.92 267.81 42.31 264.61 42.25C261.71 42.21 261.47 42.04 262.61 40.91C263.68 39.83 265.54 39.7 266.66 40.6M364.9 40.15C365.64 40.35 366.57 41.35 366.5 41.86C366.43 42.35 361.19 42.43 361.09 41.94C360.88 40.82 363.28 39.7 364.9 40.15M116 40.46C112.85 41.73 112.31 45.96 115.03 48.04C116.99 49.53 119.71 48.87 120.96 46.59C122.82 43.19 119.48 39.06 116 40.46M325.23 40.39C322.8 41.15 321.63 44.16 322.84 46.54C324.9 50.62 330.81 48.86 330.51 44.25C330.32 41.35 327.89 39.57 325.23 40.39M119.42 41.06C122.44 43.18 121.41 48.18 117.89 48.54C114.17 48.92 112.08 44.58 114.6 41.72C115.8 40.35 117.98 40.05 119.42 41.06M328.57 41.07C331.78 43.29 330.29 48.58 326.45 48.6C322.79 48.61 321.19 43.47 324.15 41.21C325.34 40.3 327.37 40.24 328.57 41.07M29.4 41.17C28.84 41.49 28.83 41.6 28.83 45.95C28.83 49.71 28.86 50.21 29.12 50.53C29.8 51.37 41.82 61.21 42.16 61.21C42.75 61.21 42.75 61.2 50.3 51.6C57.82 42.02 57.91 41.88 57.22 41.24C56.83 40.9 30.01 40.82 29.4 41.17M59.31 42.92C59.06 43.08 57.94 44.37 56.82 45.78C55.7 47.19 52.44 51.3 49.57 54.9C43.94 61.97 43.78 62.22 44.39 62.71C44.93 63.15 63.15 63.21 63.76 62.79C64.08 62.57 64.89 61.35 66.59 58.56C67.38 57.27 67.33 56.98 65.79 53.79C64.49 51.09 64.01 50.11 61.84 45.53C60.46 42.64 60.19 42.35 59.31 42.92" id="b2ae2SoG7"/>
    <path d="M29.08 18.61C28.88 18.91 28.82 19.48 28.82 21.43C28.82 24.39 28.58 24.05 32.22 26.39C38.17 30.21 38.06 30.22 37.87 25.84C37.71 21.85 38.11 22.41 33.72 20.07C32.99 19.68 31.93 19.11 31.38 18.8C30.18 18.14 29.45 18.08 29.08 18.61M54.07 22.24C53.21 22.5 53.11 23.02 53.69 24.35C54.11 25.32 57.62 32.69 59.42 36.37C60.44 38.46 60.93 38.48 62.63 36.45C66.36 31.98 70.01 27.42 70.15 27.05C70.48 26.18 70.25 22.95 69.83 22.52C69.8 22.5 69.68 22.37 69.45 22.14C65 22.13 62.53 22.11 62.03 22.11C57.61 22.09 54.39 22.15 54.07 22.24M27.31 52.37C27.08 52.62 25.92 54.21 24.73 55.9C20.78 61.53 20.85 61.39 21.57 62.09C22.46 62.97 35.43 70.03 35.95 69.91C36.45 69.81 41.03 64.56 41.47 63.6C41.75 62.98 41.48 62.72 35.26 57.44C27.83 51.16 28.2 51.39 27.31 52.37" id="c2WbPhRQM"/>
  </defs>
  <g>
    <g>
      <use xlink:href="#c10jXWMvsE" opacity="1" fill="#000000" fill-opacity="1"/>
      <g>
        <use xlink:href="#c10jXWMvsE" opacity="1" fill-opacity="0" stroke="#000000" stroke-width="1" stroke-opacity="0"/>
      </g>
    </g>
    <g>
      <use xlink:href="#b2ae2SoG7" opacity="1" fill="#079d7d" fill-opacity="1"/>
      <g>
        <use xlink:href="#b2ae2SoG7" opacity="1" fill-opacity="0" stroke="#000000" stroke-width="1" stroke-opacity="0"/>
      </g>
    </g>
    <g>
      <use xlink:href="#c2WbPhRQM" opacity="1" fill="#fce406" fill-opacity="1"/>
      <g>
        <use xlink:href="#c2WbPhRQM" opacity="1" fill-opacity="0" stroke="#000000" stroke-width="1" stroke-opacity="0"/>
      </g>
    </g>
  </g>
</svg>
